HIERARCHY
ROOT Hips
{
	OFFSET 0.00000 0.00000 0.00000
	CHANNELS 6 Xposition Yposition Zposition Zrotation Yrotation Xrotation 
	JOINT LHipJoint
	{
		OFFSET 0 0 0
		CHANNELS 3 Zrotation Yrotation Xrotation
		JOINT LeftHip
		{
			OFFSET 1.75344 -1.53157 0.77399
			CHANNELS 3 Zrotation Yrotation Xrotation
			JOINT LeftKnee
			{
				OFFSET 2.25415 -6.19323 0.00000
				CHANNELS 3 Zrotation Yrotation Xrotation
				JOINT LeftAnkle
				{
					OFFSET 2.30342 -6.32861 0.00000
					CHANNELS 3 Zrotation Yrotation Xrotation
					JOINT LeftToe
					{
						OFFSET 0.10958 -0.30108 1.49206
						CHANNELS 3 Zrotation Yrotation Xrotation
						End Site
						{
							OFFSET 0.00000 -0.00000 0.77783
						}
					}
				}
			}
		}
	}
	JOINT RHipJoint
	{
		OFFSET 0 0 0
		CHANNELS 3 Zrotation Yrotation Xrotation
		JOINT RightHip
		{
			OFFSET -1.81912 -1.53156 0.77399
			CHANNELS 3 Zrotation Yrotation Xrotation
			JOINT RightKnee
			{
				OFFSET -2.22882 -6.12365 0.00000
				CHANNELS 3 Zrotation Yrotation Xrotation
				JOINT RightAnkle
				{
					OFFSET -2.21943 -6.09785 0.00000
					CHANNELS 3 Zrotation Yrotation Xrotation
					JOINT RightToe
					{
						OFFSET -0.18931 -0.52012 1.59379
						CHANNELS 3 Zrotation Yrotation Xrotation
						End Site
						{
							OFFSET -0.00000 -0.00000 0.84686
						}
					}
				}
			}
		}
	}
	JOINT lowerback
	{
		OFFSET 0 0 0
		CHANNELS 3 Zrotation Yrotation Xrotation
		JOINT Chest
		{
			OFFSET -0.00200 1.66634 -0.14248
			CHANNELS 3 Zrotation Yrotation Xrotation
			JOINT Chest2
			{
				OFFSET -0.00875 1.64542 0.09514
				CHANNELS 3 Zrotation Yrotation Xrotation
				JOINT lowerneck
				{
					OFFSET 0 0 0
					CHANNELS 3 Zrotation Yrotation Xrotation
					JOINT Neck
					{
						OFFSET 0.02257 1.59605 0.00839
						CHANNELS 3 Zrotation Yrotation Xrotation
						JOINT Head
						{
							OFFSET -0.10214 1.57530 -0.23335
							CHANNELS 3 Zrotation Yrotation Xrotation
							End Site
							{
								OFFSET -0.03588 1.60717 -0.08062
							}
						}
					}
				}
				JOINT LeftCollar
				{
					OFFSET 0 0 0
					CHANNELS 3 Zrotation Yrotation Xrotation
					JOINT LeftShoulder
					{
						OFFSET 2.54983 1.10186 0.40078
CHANNELS 3 Zrotation Xrotation Yrotation
						JOINT LeftElbow
						{
OFFSET 0 -4.288400 0.000000
CHANNELS 3 Zrotation Xrotation Yrotation
							JOINT LeftWrist
							{
OFFSET 0 -3.065520 -0.000000
CHANNELS 3 Zrotation Xrotation Yrotation
								JOINT lhand
								{
									OFFSET 0 0 0
CHANNELS 3 Zrotation Xrotation Yrotation
									JOINT LFingers
									{
OFFSET 0 -0.753040 0.000000
CHANNELS 3 Zrotation Xrotation Yrotation
										End Site
										{
OFFSET 0 -0.607120 0.000000
										}
									}
								}
								JOINT LThumb
								{
OFFSET 0 0.000000 0.000000
CHANNELS 3 Zrotation Xrotation Yrotation
									End Site
									{
OFFSET 0 -0.616390 0.616390
									}
								}
							}
						}
					}
				}
				JOINT RightCollar
				{
					OFFSET 0 0 0
					CHANNELS 3 Zrotation Yrotation Xrotation
					JOINT RightShoulder
					{
						OFFSET -2.60909 1.35448 0.21802
CHANNELS 3 Zrotation Xrotation Yrotation
						JOINT RightElbow
						{
OFFSET 0 -4.521720 -0.000000
CHANNELS 3 Zrotation Xrotation Yrotation
							JOINT RightWrist
							{
OFFSET 0 -2.891400 0.000000
CHANNELS 3 Zrotation Xrotation Yrotation
								JOINT rhand
								{
									OFFSET 0 0 0
CHANNELS 3 Zrotation Xrotation Yrotation
									JOINT RFingers
									{
OFFSET 0 -0.680540 0.000000
CHANNELS 3 Zrotation Xrotation Yrotation
										End Site
										{
OFFSET 0 -0.548670 0.000000
										}
									}
								}
								JOINT RThumb
								{
OFFSET 0 0.000000 0.000000
CHANNELS 3 Zrotation Xrotation Yrotation
									End Site
									{
OFFSET 0 -0.557050 0.557050
									}
								}
							}
						}
					}
				}
			}
		}
	}
}
MOTION
Frames: 6
Frame Time: 0.008333333333333333
8.922000 15.476600 22.376700 -179.686000 2.960400 177.379000 0.000000 0.000000 0.000000 -24.569100 -17.956700 4.103400 1.420800 7.538000 21.319400 1.016100 9.491100 -24.697200 2.679000 -10.156400 -29.484700 0.000000 0.000000 0.000000 26.154400 13.123900 6.442000 -0.861500 -5.918800 16.548900 0.498300 -19.918800 -23.930900 -0.003400 -0.378100 1.038900 0.880800 1.779100 8.494800 -0.021500 2.535000 -3.839500 -0.924400 1.198300 -8.804500 -4.490300 -1.192700 -9.154300 3.065600 -2.186500 18.824600 1.514300 -1.375500 7.355700 -0.000000 -0.000000 0.000000 3.677400 14.712900 -36.743000 20.991800 -31.818800 6.045600 7.014700 9.275800 33.788600 0.000000 0.000000 0.000000 -7.125000 0.000000 0.000000 -14.016800 -3.120800 -15.211500 -0.000000 -0.000000 0.000000 -4.696000 15.262900 45.586600 -20.284800 -30.983900 -5.677200 -3.685200 27.553500 52.336100 0.000000 0.000000 0.000000 7.125000 0.000000 -0.000000 68.727700 72.436800 -50.747800
8.921464 15.476118 22.377075 -179.683321 2.994322 177.377928 0.000000 0.000000 0.000000 -24.565027 -17.933174 4.076820 1.425784 7.550647 21.357395 1.006186 9.544796 -24.660866 2.665495 -10.132821 -29.407960 0.000000 0.000000 0.000000 26.155097 13.131938 6.435891 -0.857963 -5.906850 16.514388 0.531793 -20.037018 -23.809199 -0.001632 -0.136359 0.374768 0.889642 1.790247 8.512699 -0.025787 2.550380 -3.834195 -0.936886 1.204891 -8.808358 -4.492444 -1.207116 -9.158694 3.072567 -2.206274 18.817365 1.515157 -1.384021 7.355057 0.000000 0.000000 0.000000 3.695620 14.742374 -36.766365 21.013504 -31.844148 6.057068 7.010681 9.292949 33.721024 0.000000 0.000000 0.000000 -7.125000 0.000000 0.000000 -14.015085 -3.054885 -15.194083 0.000000 0.000000 0.000000 -4.664865 15.237820 45.503751 -20.282121 -30.980738 -5.675860 -3.619767 27.499857 52.317987 0.000000 0.000000 0.000000 7.125000 0.000000 0.000000 68.710123 72.407272 -50.697587
8.921050 15.475650 22.377414 -179.680785 3.029091 177.375205 0.000000 0.000000 0.000000 -24.560653 -17.904846 4.051273 1.430545 7.562720 21.393660 0.997356 9.591709 -24.627770 2.649751 -10.105257 -29.318313 0.000000 0.000000 0.000000 26.156626 13.142776 6.433069 -0.854756 -5.896012 16.483086 0.560836 -20.138058 -23.701101 -0.000143 0.079877 -0.219309 0.895692 1.801817 8.530203 -0.028875 2.566019 -3.827454 -0.946530 1.211813 -8.810594 -4.499533 -1.220942 -9.162773 3.084472 -2.225231 18.808839 1.518527 -1.392010 7.354005 0.000000 0.000000 0.000000 3.713173 14.768158 -36.791948 21.035186 -31.869452 6.068522 6.998521 9.308877 33.644439 0.000000 0.000000 0.000000 -7.125000 0.000000 0.000000 -14.017326 -2.979265 -15.178914 0.000000 0.000000 0.000000 -4.637383 15.218799 45.420765 -20.285952 -30.985337 -5.677866 -3.563660 27.457126 52.306270 0.000000 0.000000 0.000000 7.125000 0.000000 0.000000 68.706443 72.383222 -50.666325
8.921425 15.475275 22.377522 -179.679177 3.069337 177.361808 0.000000 0.000000 0.000000 -24.554329 -17.845469 4.032410 1.433868 7.571080 21.418739 0.995534 9.594764 -24.615606 2.619527 -10.051936 -29.145220 0.000000 0.000000 0.000000 26.163539 13.171715 6.451504 -0.853685 -5.892368 16.472529 0.561104 -20.128036 -23.680951 -0.000465 0.131216 -0.360463 0.883688 1.816125 8.545154 -0.024213 2.583328 -3.811430 -0.937795 1.220870 -8.802342 -4.538600 -1.230964 -9.164809 3.128308 -2.238896 18.791958 1.538141 -1.396565 7.350307 0.000000 0.000000 0.000000 3.726410 14.770088 -36.831872 21.056729 -31.894479 6.079883 6.933732 9.316915 33.509608 0.000000 0.000000 0.000000 -7.125000 0.000000 0.000000 -14.045139 -2.840897 -15.178271 0.000000 0.000000 0.000000 -4.633525 15.238949 45.336898 -20.331878 -31.040105 -5.701499 -3.567840 27.484939 52.335905 0.000000 0.000000 0.000000 7.125000 0.000000 0.000000 68.792615 72.394583 -50.757588
8.921772 15.475086 22.377600 -179.679723 3.109640 177.354871 0.000000 0.000000 0.000000 -24.547676 -17.784168 4.005406 1.436932 7.578808 21.441938 0.993339 9.604796 -24.606083 2.622583 -10.056675 -29.161168 0.000000 0.000000 0.000000 26.163862 13.196030 6.459372 -0.853101 -5.890375 16.466753 0.556763 -20.097456 -23.670234 -0.000599 0.145441 -0.399637 0.871555 1.828553 8.554449 -0.020786 2.597967 -3.795134 -0.929620 1.228649 -8.790485 -4.578198 -1.238860 -9.170248 3.174958 -2.248742 18.767626 1.559119 -1.398637 7.344657 0.000000 0.000000 0.000000 3.735325 14.767135 -36.856879 21.077066 -31.918127 6.090626 6.891354 9.323590 33.402874 0.000000 0.000000 0.000000 -7.125000 0.000000 0.000000 -14.062284 -2.732450 -15.172416 0.000000 0.000000 0.000000 -4.632724 15.244195 45.264833 -20.371214 -31.087005 -5.721758 -3.559113 27.505716 52.393910 0.000000 0.000000 0.000000 7.125000 0.000000 0.000000 68.971219 72.410524 -50.938311
8.922040 15.475408 22.377600 -179.686154 3.150100 177.365589 0.000000 0.000000 0.000000 -24.540120 -17.717610 3.956157 1.439290 7.584810 21.459998 0.990123 9.633895 -24.603778 2.716578 -10.220069 -29.693685 0.000000 0.000000 0.000000 26.146178 13.207712 6.438365 -0.853851 -5.892893 16.474041 0.539829 -20.010694 -23.685293 -0.000224 0.058251 -0.160147 0.859068 1.835841 8.548286 -0.020732 2.605309 -3.778093 -0.922975 1.232936 -8.768782 -4.619247 -1.240950 -9.184985 3.229298 -2.248153 18.722933 1.583823 -1.393921 7.333671 0.000000 0.000000 0.000000 3.732431 14.750844 -36.841124 21.094107 -31.938008 6.099683 6.910217 9.326537 33.372918 0.000000 0.000000 0.000000 -7.125000 0.000000 0.000000 -14.050280 -2.705763 -15.152320 0.000000 0.000000 0.000000 -4.640280 15.208719 45.225016 -20.392543 -31.112407 -5.732797 -3.515116 27.507270 52.529437 0.000000 0.000000 0.000000 7.125000 0.000000 0.000000 69.402398 72.438980 -51.363488
